<svg xmlns="http://www.w3.org/2000/svg" xmlns:xlink="http://www.w3.org/1999/xlink" width="500" zoomAndPan="magnify" viewBox="0 0 375 374.999991" height="500" preserveAspectRatio="xMidYMid meet" version="1.0"><defs><g/><clipPath id="234942f710"><path d="M 163.257812 133 L 211.945312 133 L 211.945312 198.949219 L 163.257812 198.949219 Z M 163.257812 133 " clip-rule="nonzero"/></clipPath></defs><rect x="-37.5" width="450" fill="#ffffff" y="-37.499999" height="449.999989" fill-opacity="1"/><rect x="-37.5" width="450" fill="#ffffff" y="-37.499999" height="449.999989" fill-opacity="1"/><g fill="#000000" fill-opacity="1"><g transform="translate(132.31285, 233.802114)"><g><path d="M 16.734375 -18.484375 L 10.0625 -18.484375 L 10.0625 0 L 7.34375 0 L 7.34375 -18.484375 L 0.703125 -18.484375 L 0.703125 -20.734375 L 16.734375 -20.734375 Z M 16.734375 -18.484375 "/></g></g></g><g fill="#000000" fill-opacity="1"><g transform="translate(152.247278, 233.802114)"><g><path d="M 5.34375 0 L 2.609375 0 L 2.609375 -20.734375 L 5.34375 -20.734375 Z M 5.34375 0 "/></g></g></g><g fill="#000000" fill-opacity="1"><g transform="translate(162.714467, 233.802114)"><g><path d="M 18.234375 -9.6875 C 18.234375 -7.6875 17.914062 -5.960938 17.28125 -4.515625 C 16.644531 -3.066406 15.753906 -1.9375 14.609375 -1.125 L 18.3125 1.78125 L 16.4375 3.5 L 12.078125 0.03125 C 11.390625 0.195312 10.664062 0.28125 9.90625 0.28125 C 8.269531 0.28125 6.820312 -0.117188 5.5625 -0.921875 C 4.300781 -1.722656 3.320312 -2.863281 2.625 -4.34375 C 1.925781 -5.832031 1.566406 -7.554688 1.546875 -9.515625 L 1.546875 -11 C 1.546875 -13 1.890625 -14.757812 2.578125 -16.28125 C 3.273438 -17.8125 4.257812 -18.984375 5.53125 -19.796875 C 6.800781 -20.609375 8.25 -21.015625 9.875 -21.015625 C 11.550781 -21.015625 13.019531 -20.609375 14.28125 -19.796875 C 15.550781 -18.992188 16.523438 -17.832031 17.203125 -16.3125 C 17.890625 -14.800781 18.234375 -13.035156 18.234375 -11.015625 Z M 15.5 -11.03125 C 15.5 -13.46875 15.007812 -15.347656 14.03125 -16.671875 C 13.0625 -17.992188 11.675781 -18.65625 9.875 -18.65625 C 8.15625 -18.65625 6.800781 -18 5.8125 -16.6875 C 4.820312 -15.375 4.3125 -13.550781 4.28125 -11.21875 L 4.28125 -9.6875 C 4.28125 -7.320312 4.773438 -5.453125 5.765625 -4.078125 C 6.765625 -2.710938 8.144531 -2.03125 9.90625 -2.03125 C 11.675781 -2.03125 13.039062 -2.671875 14 -3.953125 C 14.96875 -5.242188 15.46875 -7.09375 15.5 -9.5 Z M 15.5 -11.03125 "/></g></g></g><g fill="#000000" fill-opacity="1"><g transform="translate(185.296875, 233.802114)"><g><path d="M 17 -20.734375 L 17 -6.640625 C 16.988281 -4.679688 16.375 -3.078125 15.15625 -1.828125 C 13.9375 -0.585938 12.28125 0.101562 10.1875 0.25 L 9.46875 0.28125 C 7.195312 0.28125 5.382812 -0.328125 4.03125 -1.546875 C 2.6875 -2.773438 2.007812 -4.460938 2 -6.609375 L 2 -20.734375 L 4.703125 -20.734375 L 4.703125 -6.6875 C 4.703125 -5.1875 5.113281 -4.019531 5.9375 -3.1875 C 6.757812 -2.363281 7.9375 -1.953125 9.46875 -1.953125 C 11.007812 -1.953125 12.191406 -2.363281 13.015625 -3.1875 C 13.835938 -4.007812 14.25 -5.171875 14.25 -6.671875 L 14.25 -20.734375 Z M 17 -20.734375 "/></g></g></g><g fill="#000000" fill-opacity="1"><g transform="translate(206.740367, 233.802114)"><g><path d="M 5.34375 0 L 2.609375 0 L 2.609375 -20.734375 L 5.34375 -20.734375 Z M 5.34375 0 "/></g></g></g><g fill="#000000" fill-opacity="1"><g transform="translate(217.207556, 233.802114)"><g><path d="M 5.9375 -20.734375 L 12.71875 -3.8125 L 19.484375 -20.734375 L 23.03125 -20.734375 L 23.03125 0 L 20.296875 0 L 20.296875 -8.078125 L 20.5625 -16.78125 L 13.75 0 L 11.65625 0 L 4.875 -16.734375 L 5.140625 -8.078125 L 5.140625 0 L 2.40625 0 L 2.40625 -20.734375 Z M 5.9375 -20.734375 "/></g></g></g><g clip-path="url(#234942f710)"><path fill="#000000" d="M 187.488281 198.835938 C 188.277344 198.835938 189.066406 198.796875 189.847656 198.71875 C 190.632812 198.640625 191.414062 198.523438 192.1875 198.371094 C 192.960938 198.21875 193.726562 198.027344 194.480469 197.796875 C 195.234375 197.570312 195.976562 197.304688 196.707031 197.003906 C 197.433594 196.703125 198.148438 196.367188 198.84375 195.996094 C 199.539062 195.628906 200.214844 195.222656 200.871094 194.789062 C 201.527344 194.351562 202.160156 193.886719 202.769531 193.386719 C 203.378906 192.890625 203.960938 192.363281 204.519531 191.808594 C 205.078125 191.253906 205.605469 190.671875 206.109375 190.066406 C 206.609375 189.457031 207.078125 188.828125 207.515625 188.175781 C 207.953125 187.523438 208.359375 186.851562 208.734375 186.160156 C 209.105469 185.46875 209.441406 184.761719 209.746094 184.035156 C 210.046875 183.308594 210.3125 182.574219 210.542969 181.820312 C 210.773438 181.070312 210.964844 180.308594 211.117188 179.539062 C 211.273438 178.769531 211.390625 177.996094 211.46875 177.214844 C 211.546875 176.433594 211.585938 175.652344 211.585938 174.867188 C 211.585938 156.121094 189.601562 134.449219 188.667969 133.539062 C 188.507812 133.386719 188.328125 133.265625 188.125 133.183594 C 187.921875 133.101562 187.707031 133.058594 187.488281 133.058594 C 187.269531 133.058594 187.054688 133.101562 186.851562 133.183594 C 186.648438 133.265625 186.46875 133.386719 186.3125 133.539062 C 185.375 134.449219 163.390625 156.121094 163.390625 174.867188 C 163.390625 175.652344 163.429688 176.433594 163.507812 177.214844 C 163.585938 177.996094 163.703125 178.769531 163.859375 179.539062 C 164.011719 180.308594 164.203125 181.070312 164.433594 181.820312 C 164.664062 182.574219 164.929688 183.308594 165.234375 184.035156 C 165.535156 184.761719 165.871094 185.46875 166.246094 186.160156 C 166.617188 186.851562 167.023438 187.523438 167.460938 188.175781 C 167.898438 188.828125 168.367188 189.457031 168.867188 190.066406 C 169.371094 190.671875 169.898438 191.253906 170.457031 191.808594 C 171.015625 192.363281 171.597656 192.890625 172.207031 193.386719 C 172.816406 193.886719 173.449219 194.351562 174.105469 194.789062 C 174.761719 195.222656 175.4375 195.628906 176.132812 195.996094 C 176.828125 196.367188 177.542969 196.703125 178.269531 197.003906 C 179 197.304688 179.742188 197.570312 180.496094 197.796875 C 181.25 198.027344 182.015625 198.21875 182.789062 198.371094 C 183.5625 198.523438 184.34375 198.640625 185.128906 198.71875 C 185.914062 198.796875 186.699219 198.835938 187.488281 198.835938 Z M 187.488281 137.128906 C 192.042969 141.894531 208.222656 159.890625 208.222656 174.867188 C 208.222656 175.542969 208.191406 176.214844 208.125 176.886719 C 208.058594 177.558594 207.957031 178.226562 207.824219 178.890625 C 207.691406 179.554688 207.527344 180.207031 207.332031 180.855469 C 207.132812 181.5 206.90625 182.136719 206.644531 182.757812 C 206.386719 183.382812 206.09375 183.992188 205.773438 184.589844 C 205.453125 185.183594 205.105469 185.761719 204.730469 186.324219 C 204.351562 186.886719 203.949219 187.429688 203.515625 187.949219 C 203.085938 188.472656 202.628906 188.972656 202.148438 189.449219 C 201.671875 189.929688 201.167969 190.382812 200.644531 190.808594 C 200.117188 191.238281 199.574219 191.640625 199.007812 192.015625 C 198.445312 192.390625 197.863281 192.738281 197.261719 193.054688 C 196.664062 193.375 196.050781 193.664062 195.421875 193.921875 C 194.796875 194.179688 194.15625 194.40625 193.507812 194.601562 C 192.859375 194.800781 192.199219 194.964844 191.535156 195.09375 C 190.867188 195.226562 190.195312 195.324219 189.519531 195.390625 C 188.84375 195.457031 188.167969 195.492188 187.488281 195.492188 C 186.808594 195.492188 186.132812 195.457031 185.457031 195.390625 C 184.78125 195.324219 184.109375 195.226562 183.441406 195.09375 C 182.777344 194.964844 182.121094 194.800781 181.46875 194.601562 C 180.820312 194.40625 180.179688 194.179688 179.554688 193.921875 C 178.925781 193.664062 178.3125 193.375 177.714844 193.054688 C 177.113281 192.738281 176.535156 192.390625 175.96875 192.015625 C 175.402344 191.640625 174.859375 191.238281 174.335938 190.808594 C 173.808594 190.382812 173.308594 189.929688 172.828125 189.449219 C 172.347656 188.972656 171.890625 188.472656 171.460938 187.949219 C 171.027344 187.429688 170.625 186.886719 170.246094 186.324219 C 169.871094 185.761719 169.523438 185.183594 169.203125 184.589844 C 168.882812 183.992188 168.589844 183.382812 168.332031 182.757812 C 168.070312 182.136719 167.84375 181.5 167.644531 180.855469 C 167.449219 180.207031 167.285156 179.554688 167.152344 178.890625 C 167.019531 178.226562 166.917969 177.558594 166.851562 176.886719 C 166.785156 176.214844 166.753906 175.542969 166.753906 174.867188 C 166.753906 159.890625 182.933594 141.894531 187.488281 137.128906 Z M 187.488281 137.128906 " fill-opacity="1" fill-rule="nonzero"/></g><path stroke-linecap="butt" transform="matrix(0.398211, 0.36618, -0.36618, 0.398211, 170.82966, 157.25753)" fill="none" stroke-linejoin="miter" d="M 0.00140633 2.000556 L 81.980405 2.001629 " stroke="#000000" stroke-width="4" stroke-opacity="1" stroke-miterlimit="4"/><path stroke-linecap="butt" transform="matrix(0, -0.540981, 0.540981, 0, 185.334206, 195.294422)" fill="none" stroke-linejoin="miter" d="M 0.00268554 2.00333 L 108.349059 2.00333 " stroke="#000000" stroke-width="4" stroke-opacity="1" stroke-miterlimit="4"/><path stroke-linecap="butt" transform="matrix(-0.402529, 0.361428, -0.361428, -0.402529, 204.971842, 158.053876)" fill="none" stroke-linejoin="miter" d="M 0.0000660852 1.997122 L 83.05857 1.997451 " stroke="#000000" stroke-width="4" stroke-opacity="1" stroke-miterlimit="4"/></svg>